HIERARCHY
ROOT joint_Root
{
	OFFSET 0.0 0.0 0.0
	CHANNELS 6 Xposition Yposition Zposition Zrotation Xrotation Yrotation 
	JOINT Hips
	{
		OFFSET 4.5925 91.4895 -427.239
		CHANNELS 6 Xposition Yposition Zposition Zrotation Xrotation Yrotation 
		JOINT Spine
		{
			OFFSET 15.7357 0.0 0.0
			CHANNELS 6 Xposition Yposition Zposition Zrotation Xrotation Yrotation 
			JOINT Chest
			{
				OFFSET 8.98455 -0.406207 0.0
				CHANNELS 6 Xposition Yposition Zposition Zrotation Xrotation Yrotation 
				JOINT Neck
				{
					OFFSET 16.3773 0.0 0.0
					CHANNELS 6 Xposition Yposition Zposition Zrotation Xrotation Yrotation 
					JOINT Head
					{
						OFFSET 6.45672 0.0 0.0
						CHANNELS 6 Xposition Yposition Zposition Zrotation Xrotation Yrotation 
						End Site
						{
							OFFSET 0.0 0.0 0.0
						}
					}
				}
				JOINT Shoulder_L
				{
					OFFSET 12.9942 -0.242716 4.98039
					CHANNELS 6 Xposition Yposition Zposition Zrotation Xrotation Yrotation 
					JOINT UpperArm_L
					{
						OFFSET 5.34809 0.0 0.0
						CHANNELS 6 Xposition Yposition Zposition Zrotation Xrotation Yrotation 
						JOINT LowerArm_L
						{
							OFFSET 24.3286 1.87007e-05 0.0
							CHANNELS 6 Xposition Yposition Zposition Zrotation Xrotation Yrotation 
							JOINT Hand_L
							{
								OFFSET 22.2916 0.0 0.0
								CHANNELS 6 Xposition Yposition Zposition Zrotation Xrotation Yrotation 
								End Site
								{
									OFFSET 0.0 0.0 0.0
								}
							}
						}
					}
				}
				JOINT Shoulder_R
				{
					OFFSET 12.9945 -0.242716 -4.98039
					CHANNELS 6 Xposition Yposition Zposition Zrotation Xrotation Yrotation 
					JOINT UpperArm_R
					{
						OFFSET -5.34813 0.0 0.0
						CHANNELS 6 Xposition Yposition Zposition Zrotation Xrotation Yrotation 
						JOINT LowerArm_R
						{
							OFFSET -24.3289 0.000322201 0.0
							CHANNELS 6 Xposition Yposition Zposition Zrotation Xrotation Yrotation 
							JOINT Hand_R
							{
								OFFSET -22.2915 -0.000108084 0.0
								CHANNELS 6 Xposition Yposition Zposition Zrotation Xrotation Yrotation 
								End Site
								{
									OFFSET 0.0 0.0 0.0
								}
							}
						}
					}
				}
			}
		}
		JOINT UpperLeg_L
		{
			OFFSET -2.19248 -6.46944 0.0
			CHANNELS 6 Xposition Yposition Zposition Zrotation Xrotation Yrotation 
			JOINT LowerLeg_L
			{
				OFFSET 39.0811 0.0 -1.23785e-05
				CHANNELS 6 Xposition Yposition Zposition Zrotation Xrotation Yrotation 
				JOINT Foot_L
				{
					OFFSET 40.9854 0.0 -1.26872e-05
					CHANNELS 6 Xposition Yposition Zposition Zrotation Xrotation Yrotation 
					JOINT Toes_L
					{
						OFFSET 11.7543 0.0 0.0
						CHANNELS 6 Xposition Yposition Zposition Zrotation Xrotation Yrotation 
						End Site
						{
							OFFSET 0.0 0.0 0.0
						}
					}
				}
			}
		}
		JOINT UpperLeg_R
		{
			OFFSET -2.19251 6.46944 0.0
			CHANNELS 6 Xposition Yposition Zposition Zrotation Xrotation Yrotation 
			JOINT LowerLeg_R
			{
				OFFSET -39.0811 -0.00228153 -0.0401928
				CHANNELS 6 Xposition Yposition Zposition Zrotation Xrotation Yrotation 
				JOINT Foot_R
				{
					OFFSET -40.9854 0.0 0.0
					CHANNELS 6 Xposition Yposition Zposition Zrotation Xrotation Yrotation 
					JOINT Toes_R
					{
						OFFSET -11.7543 0.0 0.0
						CHANNELS 6 Xposition Yposition Zposition Zrotation Xrotation Yrotation 
						End Site
						{
							OFFSET 0.0 0.0 0.0
						}
					}
				}
			}
		}
	}
}
MOTION
Frames:	6
Frame Time:	0.0333333
0.000000 0.000000 0.000000 0.000000 0.000000 -0.000000 -0.244766 90.608300 2.586550 89.666100 -4.318340 10.230600 15.735700 0.000005 -0.000001 86.575400 82.863300 -86.231700 8.984550 -0.406207 -0.000000 6.485030 -0.853889 0.734973 16.377300 -0.000001 -0.000001 11.077500 -3.972230 0.177096 6.456720 -0.000001 -0.000000 7.772610 -4.509630 -2.857900 12.994200 -0.242716 4.980390 -91.469000 5.169420 -74.112700 5.348090 -0.000007 -0.000001 -64.846200 34.664100 -16.342500 24.328600 0.000019 0.000005 8.674490 23.117600 -21.235200 22.291600 -0.000001 0.000005 5.851840 5.250720 1.413610 12.994500 -0.242716 -4.980390 88.314400 10.759000 -81.041800 -5.348130 -0.000001 -0.000004 -63.167900 34.683800 -10.246200 -24.328900 0.000322 -0.000009 1.289070 3.665540 -19.405300 -22.291500 -0.000108 -0.000004 11.929000 5.396090 -2.810740 -2.192480 -6.469440 -0.000000 -174.226000 -13.809000 2.789560 39.081100 -0.000007 -0.000012 -0.191085 0.330001 30.073000 40.985400 -0.000006 -0.000013 0.089284 5.032780 -72.163300 11.754300 -0.000000 0.000003 -0.000188 -0.001760 -16.644100 -2.192510 6.469440 -0.000001 172.442000 20.534100 -175.939000 -39.081100 -0.002282 -0.040193 -0.228324 0.411043 29.402000 -40.985400 0.000008 0.000006 3.544800 16.077600 -72.625200 -11.754300 -0.000006 -0.000006 -0.001596 -0.023544 -17.530500
0.000000 0.000000 0.000000 0.000000 0.000000 -0.000000 -0.285784 90.604800 2.548590 89.663500 -4.325470 10.308500 15.735700 0.000005 -0.000001 86.532400 82.823800 -86.156300 8.984550 -0.406207 -0.000000 6.563660 -0.869355 0.801374 16.377300 -0.000001 -0.000001 11.221700 -4.113970 0.256513 6.456720 -0.000001 -0.000000 7.883630 -4.680570 -2.826430 12.994200 -0.242716 4.980390 -91.487400 5.201560 -74.018000 5.348090 -0.000007 -0.000001 -64.412200 34.124500 -17.088700 24.328600 0.000019 0.000005 8.839770 22.813800 -21.855300 22.291600 -0.000001 0.000005 5.750120 5.255790 1.279300 12.994500 -0.242716 -4.980390 88.314600 10.733900 -81.022600 -5.348130 -0.000001 -0.000004 -63.536600 34.767400 -9.976610 -24.328900 0.000322 -0.000009 1.274300 3.597870 -19.532900 -22.291500 -0.000108 -0.000004 11.805400 5.399950 -2.935660 -2.192480 -6.469440 -0.000000 -174.171000 -13.795700 2.821010 39.081100 -0.000007 -0.000012 -0.193447 0.333552 30.112400 40.985400 -0.000006 -0.000013 0.070672 5.072850 -72.148000 11.754300 -0.000000 0.000003 -0.000201 -0.001863 -16.647800 -2.192510 6.469440 -0.000001 172.465000 20.507800 -175.912000 -39.081100 -0.002282 -0.040193 -0.226261 0.406591 29.449700 -40.985400 0.000008 0.000006 3.583770 16.058900 -72.633800 -11.754300 -0.000006 -0.000006 -0.001761 -0.025687 -17.617600
0.000000 0.000000 0.000000 0.000000 0.000000 -0.000000 -0.325550 90.604900 2.508740 89.703600 -4.239340 10.431500 15.735700 0.000005 -0.000001 86.483500 82.764800 -86.097900 8.984550 -0.406207 -0.000000 6.680850 -0.888381 0.822253 16.377300 -0.000001 -0.000001 11.384100 -4.264390 0.335269 6.456720 -0.000001 -0.000000 7.993130 -4.836570 -2.744590 12.994200 -0.242716 4.980390 -91.502200 5.253910 -74.019200 5.348090 -0.000007 -0.000001 -63.385400 33.566400 -18.261500 24.328600 0.000019 0.000005 9.186250 22.553700 -22.861900 22.291600 -0.000001 0.000005 5.666670 5.257770 1.226560 12.994500 -0.242716 -4.980390 88.313100 10.726200 -81.008100 -5.348130 -0.000001 -0.000004 -63.813000 34.980400 -9.759610 -24.328900 0.000322 -0.000009 1.260450 3.548680 -19.584100 -22.291500 -0.000108 -0.000004 11.745600 5.399650 -2.926200 -2.192480 -6.469440 -0.000000 -174.172000 -13.734500 2.922490 39.081100 -0.000007 -0.000012 -0.192465 0.332028 30.099600 40.985400 -0.000006 -0.000013 0.042196 5.065510 -72.113100 11.754300 -0.000000 0.000003 -0.000191 -0.001783 -16.644900 -2.192510 6.469440 -0.000001 172.379000 20.635900 -175.803000 -39.081100 -0.002282 -0.040193 -0.225890 0.405274 29.489600 -40.985400 0.000008 0.000006 3.637130 16.099600 -72.653500 -11.754300 -0.000006 -0.000006 -0.001577 -0.023287 -17.520000
0.000000 0.000000 0.000000 0.000000 0.000000 -0.000000 -0.379425 90.597900 2.464870 89.718600 -4.118240 10.533200 15.735700 0.000005 -0.000001 86.458300 82.702100 -86.047000 8.984550 -0.406207 -0.000000 6.805830 -0.902141 0.875318 16.377300 -0.000001 -0.000001 11.539900 -4.397980 0.394868 6.456720 -0.000001 -0.000000 8.096990 -5.007690 -2.677080 12.994200 -0.242716 4.980390 -91.502500 5.279340 -74.088900 5.348090 -0.000007 -0.000001 -61.807900 33.043700 -19.977000 24.328600 0.000019 0.000005 9.696880 22.530100 -24.034800 22.291600 -0.000001 0.000005 5.469380 5.261770 1.119670 12.994500 -0.242716 -4.980390 88.325300 10.670600 -81.027200 -5.348130 -0.000001 -0.000004 -64.009300 35.227000 -9.635000 -24.328900 0.000322 -0.000009 1.305990 3.690750 -19.516700 -22.291500 -0.000108 -0.000004 11.718500 5.398480 -2.888460 -2.192480 -6.469440 -0.000000 -174.147000 -13.607100 2.933600 39.081100 -0.000007 -0.000012 -0.194373 0.334474 30.162400 40.985400 -0.000006 -0.000013 0.024662 5.130460 -72.089100 11.754300 -0.000000 0.000003 -0.000197 -0.001826 -16.646500 -2.192510 6.469440 -0.000001 172.351000 20.732700 -175.737000 -39.081100 -0.002282 -0.040193 -0.227692 0.407308 29.559000 -40.985400 0.000008 0.000006 3.677370 16.050000 -72.681100 -11.754300 -0.000006 -0.000006 -0.001607 -0.023686 -17.536300
0.000000 0.000000 0.000000 0.000000 0.000000 -0.000000 -0.439610 90.596000 2.393330 89.763700 -3.847080 10.635200 15.735700 0.000005 -0.000001 86.230600 82.638800 -85.806900 8.984550 -0.406207 -0.000000 6.928990 -0.967679 0.905129 16.377300 -0.000001 -0.000001 11.751000 -4.571060 0.522880 6.456720 -0.000001 -0.000000 8.209220 -5.159230 -2.638030 12.994200 -0.242716 4.980390 -91.499800 5.303040 -74.183600 5.348090 -0.000007 -0.000001 -59.777200 32.290200 -22.241200 24.328600 0.000019 0.000005 10.166300 22.418500 -25.183100 22.291600 -0.000001 0.000005 5.389550 5.267020 0.978400 12.994500 -0.242716 -4.980390 88.333000 10.669400 -81.066500 -5.348130 -0.000001 -0.000004 -64.070800 35.355700 -9.556990 -24.328900 0.000322 -0.000009 1.330820 3.799510 -19.333800 -22.291500 -0.000108 -0.000004 11.721900 5.399660 -2.926390 -2.192480 -6.469440 -0.000000 -174.162000 -13.436900 2.926590 39.081100 -0.000007 -0.000012 -0.196705 0.337995 30.198700 40.985400 -0.000006 -0.000013 0.014290 5.220940 -72.028700 11.754300 -0.000000 0.000003 -0.000187 -0.001753 -16.643800 -2.192510 6.469440 -0.000001 172.305000 20.842400 -175.659000 -39.081100 -0.002282 -0.040193 -0.228853 0.408434 29.614400 -40.985400 0.000008 0.000006 3.695250 15.911100 -72.701400 -11.754300 -0.000006 -0.000006 -0.001727 -0.025244 -17.599600
0.000000 0.000000 0.000000 0.000000 0.000000 -0.000000 -0.499448 90.591800 2.327320 89.832800 -3.597640 10.812100 15.735700 0.000005 -0.000001 86.063000 82.571700 -85.641700 8.984550 -0.406207 -0.000000 7.060320 -1.019110 0.904419 16.377300 -0.000001 -0.000001 12.047800 -4.774020 0.631190 6.456720 -0.000001 -0.000000 8.365380 -5.310700 -2.497270 12.994200 -0.242716 4.980390 -91.451100 5.150380 -74.242000 5.348090 -0.000007 -0.000001 -57.708500 31.157000 -24.786400 24.328600 0.000019 0.000005 10.575500 22.180900 -26.313800 22.291600 -0.000001 0.000005 5.378270 5.266650 0.988728 12.994500 -0.242716 -4.980390 88.346900 10.646800 -81.121500 -5.348130 -0.000001 -0.000004 -64.141200 35.303100 -9.448510 -24.328900 0.000322 -0.000009 1.349580 3.900410 -19.116800 -22.291500 -0.000108 -0.000004 11.624300 5.399820 -2.931700 -2.192480 -6.469440 -0.000000 -174.173000 -13.290300 3.014270 39.081100 -0.000007 -0.000012 -0.197479 0.339028 30.220500 40.985400 -0.000006 -0.000013 0.008221 5.340250 -71.970100 11.754300 -0.000000 0.000003 -0.000193 -0.001799 -16.645500 -2.192510 6.469440 -0.000001 172.183000 21.035800 -175.512000 -39.081100 -0.002282 -0.040193 -0.225245 0.400670 29.701300 -40.985400 0.000008 0.000006 3.747500 15.856000 -72.740600 -11.754300 -0.000006 -0.000006 -0.001540 -0.022801 -17.500300
